<svg xmlns="http://www.w3.org/2000/svg" viewBox="0 0 24 24" id="Figma"><path fill="#728897" d="M8 24c2.208 0 4-1.792 4-4v-4H8c-2.208 0-4 1.792-4 4s1.792 4 4 4z" class="color0acf83 svgShape"></path><path fill="#7b93a2" d="M4 12c0-2.208 1.792-4 4-4h4v8H8c-2.208 0-4-1.792-4-4z" class="colora259ff svgShape"></path><path fill="#cbd5d8" d="M4 4c0-2.208 1.792-4 4-4h4v8H8C5.792 8 4 6.208 4 4z" class="colorf24e1e svgShape"></path><path fill="#c6d3da" d="M12 0h4c2.208 0 4 1.792 4 4s-1.792 4-4 4h-4V0z" class="colorff7262 svgShape"></path><path fill="#c8dadf" d="M20 12c0 2.208-1.792 4-4 4s-4-1.792-4-4 1.792-4 4-4 4 1.792 4 4z" class="color1abcfe svgShape"></path></svg>