<!-- <?xml version="1.0" standalone="no"?>
<svg xmlns="http://www.w3.org/2000/svg" viewBox="0 0 1440 320">
<path fill="#273036" fill-opacity="1" d="M0,192L40,176C80,160,160,128,240,112C320,96,400,96,480,128C560,160,640,224,720,240C800,256,880,224,960,197.3C1040,171,1120,149,1200,138.7C1280,128,1360,128,1400,128L1440,128L1440,0L1400,0C1360,0,1280,0,1200,0C1120,0,1040,0,960,0C880,0,800,0,720,0C640,0,560,0,480,0C400,0,320,0,240,0C160,0,80,0,40,0L0,0Z">
</path>
</svg> -->

<svg xmlns="http://www.w3.org/2000/svg" viewBox="0 0 1440 320">
  <defs>
    <linearGradient id="myGradient" gradientUnits="userSpaceOnUse" x1="0" y1="0" x2="1440" y2="0">
      <stop offset="0%" stop-color="rgb(32,127,147)" />
      <stop offset="24%" stop-color="rgb(9,9,121)" />
      <stop offset="54%" stop-color="rgb(12,12,166)" />
      <stop offset="100%" stop-color="rgb(2,0,36)" />
    </linearGradient>
  </defs>
  <path fill="url(#myGradient)" fill-opacity="1" d="M0,192L40,176C80,160,160,128,240,112C320,96,400,96,480,128C560,160,640,224,720,240C800,256,880,224,960,197.3C1040,171,1120,149,1200,138.7C1280,128,1360,128,1400,128L1440,128L1440,0L1400,0C1360,0,1280,0,1200,0C1120,0,1040,0,960,0C880,0,800,0,720,0C640,0,560,0,480,0C400,0,320,0,240,0C160,0,80,0,40,0L0,0Z"></path>
</svg>

